<svg width="32" height="25" viewBox="0 0 32 25" fill="none" xmlns="http://www.w3.org/2000/svg">
<path d="M26.1181 23.9131C25.0168 23.9131 24.1209 22.9443 24.1209 21.7537C24.1209 20.5632 25.0168 19.5943 26.1181 19.5943C27.2194 19.5943 28.1146 20.5632 28.1146 21.7537C28.1146 22.9443 27.2194 23.9131 26.1181 23.9131ZM26.1181 18.5081C24.4624 18.5081 23.1163 19.9643 23.1163 21.7537C23.1163 23.5439 24.4624 25 26.1181 25C27.7731 25 29.1199 23.5439 29.1199 21.7537C29.1199 19.9643 27.7731 18.5081 26.1181 18.5081ZM12.7422 23.9131C11.6409 23.9131 10.745 22.9443 10.745 21.7537C10.745 20.5632 11.6409 19.5943 12.7422 19.5943C13.8435 19.5943 14.7394 20.5632 14.7394 21.7537C14.7394 22.9443 13.8435 23.9131 12.7422 23.9131ZM12.7422 18.5081C11.0872 18.5081 9.74042 19.9643 9.74042 21.7537C9.74042 23.5439 11.0872 25 12.7422 25C14.3978 25 15.744 23.5439 15.744 21.7537C15.744 19.9643 14.3978 18.5081 12.7422 18.5081ZM31.8828 3.2578C31.7874 3.13472 31.6467 3.06346 31.4979 3.06346H6.73264L3.90364 0.149718C3.81025 0.0539847 3.68618 0 3.55743 0H0.502297C0.224799 0 0 0.243292 0 0.543447C0 0.843603 0.224799 1.08617 0.502297 1.08617H3.35665L6.18565 3.99991C6.27838 4.09637 6.40312 4.14963 6.53186 4.14963H30.8976L28.805 16.8224H10.4622L3.85761 2.31271C3.7729 2.12628 3.59813 2.00895 3.40668 2.00895H0.743773C0.466275 2.00895 0.241476 2.25225 0.241476 2.5524C0.241476 2.85256 0.466275 3.09585 0.743773 3.09585H3.09383L9.6984 17.6055C9.78311 17.7912 9.95788 17.9086 10.1493 17.9086H29.2253C29.4687 17.9086 29.6775 17.72 29.7202 17.4608L31.9922 3.70192C32.0182 3.54356 31.9782 3.38089 31.8828 3.2578Z" fill="white"/>
</svg>
