<svg width="25" height="25" viewBox="0 0 25 25" fill="none" xmlns="http://www.w3.org/2000/svg">
<path d="M7.38646 0C3.31406 0 0 3.31406 0 7.38646V17.6135C0 21.6859 3.31406 25 7.38646 25H17.6135C21.6859 25 25 21.6859 25 17.6135V7.38646C25 3.31406 21.6859 0 17.6135 0H7.38646ZM7.38646 1.13646H17.6135C21.0719 1.13646 23.8635 3.92813 23.8635 7.38646V17.6135C23.8635 21.0719 21.0719 23.8635 17.6135 23.8635H7.38646C3.92813 23.8635 1.13646 21.0719 1.13646 17.6135V7.38646C1.13646 3.92813 3.92813 1.13646 7.38646 1.13646ZM19.3182 4.54531C19.2438 4.54531 19.1698 4.5526 19.0964 4.56719C19.0234 4.58177 18.9521 4.60365 18.8833 4.63177C18.8146 4.66042 18.749 4.69531 18.687 4.73698C18.625 4.77865 18.5672 4.82552 18.5146 4.87813C18.462 4.93125 18.4146 4.98854 18.3734 5.05052C18.3318 5.1125 18.2969 5.17813 18.2682 5.24688C18.2396 5.31563 18.2182 5.38698 18.2036 5.4599C18.1891 5.53333 18.1818 5.60729 18.1818 5.68177C18.1818 5.75625 18.1891 5.83021 18.2036 5.90365C18.2182 5.97656 18.2396 6.04792 18.2682 6.11667C18.2969 6.18542 18.3318 6.25104 18.3734 6.31302C18.4146 6.375 18.462 6.43281 18.5146 6.48542C18.5672 6.53802 18.625 6.58542 18.687 6.62656C18.749 6.66823 18.8146 6.70313 18.8833 6.73177C18.9521 6.76042 19.0234 6.78177 19.0964 6.79635C19.1698 6.81094 19.2438 6.81823 19.3182 6.81823C19.3927 6.81823 19.4667 6.81094 19.5401 6.79635C19.613 6.78177 19.6839 6.76042 19.7531 6.73177C19.8219 6.70313 19.8875 6.66823 19.9495 6.62656C20.0115 6.58542 20.0688 6.53802 20.1219 6.48542C20.1745 6.43281 20.2214 6.375 20.263 6.31302C20.3047 6.25104 20.3396 6.18542 20.3682 6.11667C20.3964 6.04792 20.4182 5.97656 20.4328 5.90365C20.4474 5.83021 20.4547 5.75625 20.4547 5.68177C20.4547 5.60729 20.4474 5.53333 20.4328 5.4599C20.4182 5.38698 20.3964 5.31563 20.3682 5.24688C20.3396 5.17813 20.3047 5.1125 20.263 5.05052C20.2214 4.98854 20.1745 4.93125 20.1219 4.87813C20.0688 4.82552 20.0115 4.77865 19.9495 4.73698C19.8875 4.69531 19.8219 4.66042 19.7531 4.63177C19.6839 4.60365 19.613 4.58177 19.5401 4.56719C19.4667 4.5526 19.3927 4.54531 19.3182 4.54531ZM12.5 6.25C9.05521 6.25 6.25 9.05521 6.25 12.5C6.25 15.9448 9.05521 18.75 12.5 18.75C15.9448 18.75 18.75 15.9448 18.75 12.5C18.75 9.05521 15.9448 6.25 12.5 6.25ZM12.5 7.38646C15.3307 7.38646 17.6135 9.66927 17.6135 12.5C17.6135 15.3307 15.3307 17.6135 12.5 17.6135C9.66927 17.6135 7.38646 15.3307 7.38646 12.5C7.38646 9.66927 9.66927 7.38646 12.5 7.38646Z" fill="white"/>
</svg>
