<svg width="30" height="46" viewBox="0 0 30 46" fill="none" xmlns="http://www.w3.org/2000/svg">
<path d="M28.0224 24.2734C28.0224 30.1797 22.1809 34.9843 15 34.9843C7.81915 34.9843 1.97758 30.1797 1.97758 24.2734V12.4937C1.97758 6.58749 7.81915 1.78281 15 1.78281C22.1809 1.78281 28.0224 6.58749 28.0224 12.4937V24.2734ZM15 0.15625C6.7292 0.15625 0 5.69101 0 12.4937V24.2734C0 31.0761 6.7292 36.6109 15 36.6109C23.2708 36.6109 30 31.0761 30 24.2734V12.4937C30 5.69101 23.2708 0.15625 15 0.15625Z" fill="white"/>
<path d="M15.0005 8.18954C15.5462 8.18954 15.9893 7.82509 15.9893 7.37625V4.01763C15.9893 3.56763 15.5462 3.20435 15.0005 3.20435C14.4548 3.20435 14.0117 3.56763 14.0117 4.01763V7.37625C14.0117 7.82509 14.4548 8.18954 15.0005 8.18954Z" fill="white"/>
<path d="M16.1918 15.0073C16.1918 15.5476 15.6575 15.987 15.0007 15.987C14.3439 15.987 13.8096 15.5476 13.8096 15.0073V11.7812C13.8096 11.241 14.3439 10.8016 15.0007 10.8016C15.6575 10.8016 16.1918 11.241 16.1918 11.7812V15.0073ZM15.0007 9.17502C13.254 9.17502 11.832 10.3434 11.832 11.7812V15.0073C11.832 16.444 13.254 17.6135 15.0007 17.6135C16.7475 17.6135 18.1694 16.444 18.1694 15.0073V11.7812C18.1694 10.3434 16.7475 9.17502 15.0007 9.17502Z" fill="white"/>
<path d="M21.2737 38.9429L15.0004 43.2801L8.72714 38.9429C8.30968 38.6535 7.68563 38.698 7.33371 39.0414C6.98322 39.3847 7.03736 39.898 7.45482 40.1875L14.365 44.9652C14.5488 45.093 14.7739 45.1562 15.0004 45.1562C15.227 45.1562 15.4535 45.093 15.6373 44.9652L22.546 40.1875C22.9649 39.898 23.0191 39.3847 22.6671 39.0414C22.3152 38.698 21.6912 38.6535 21.2737 38.9429Z" fill="white"/>
</svg>
